<mxfile host="app.diagrams.net" agent="Mozilla/5.0 (Macintosh; Intel Mac OS X 10_15_7) AppleWebKit/605.1.15 (KHTML, like Gecko) Version/16.4 Safari/605.1.15" version="25.0.1">
  <diagram name="Page-1" id="iZKblUAH6Qu9lAlS-XX5">
    <mxGraphModel dx="1209" dy="259" grid="1" gridSize="10" guides="1" tooltips="1" connect="1" arrows="1" fold="1" page="1" pageScale="1" pageWidth="827" pageHeight="1169" math="0" shadow="0">
      <root>
        <mxCell id="0" />
        <mxCell id="1" parent="0" />
        <mxCell id="Ak8XbkpvZRS98x_vTFNV-7" value="" style="edgeStyle=orthogonalEdgeStyle;rounded=0;orthogonalLoop=1;jettySize=auto;html=1;" edge="1" parent="1" source="Ak8XbkpvZRS98x_vTFNV-1" target="Ak8XbkpvZRS98x_vTFNV-5">
          <mxGeometry relative="1" as="geometry">
            <Array as="points">
              <mxPoint x="560" y="220" />
              <mxPoint x="560" y="250" />
            </Array>
          </mxGeometry>
        </mxCell>
        <mxCell id="Ak8XbkpvZRS98x_vTFNV-13" value="" style="edgeStyle=orthogonalEdgeStyle;rounded=0;orthogonalLoop=1;jettySize=auto;html=1;entryX=0.5;entryY=0;entryDx=0;entryDy=0;" edge="1" parent="1" source="Ak8XbkpvZRS98x_vTFNV-1" target="Ak8XbkpvZRS98x_vTFNV-9">
          <mxGeometry relative="1" as="geometry">
            <mxPoint x="640" y="420" as="targetPoint" />
          </mxGeometry>
        </mxCell>
        <mxCell id="Ak8XbkpvZRS98x_vTFNV-17" value="" style="edgeStyle=orthogonalEdgeStyle;rounded=0;orthogonalLoop=1;jettySize=auto;html=1;entryX=0.75;entryY=0;entryDx=0;entryDy=0;" edge="1" parent="1" source="Ak8XbkpvZRS98x_vTFNV-1" target="Ak8XbkpvZRS98x_vTFNV-15">
          <mxGeometry relative="1" as="geometry">
            <Array as="points">
              <mxPoint x="200" y="190" />
            </Array>
          </mxGeometry>
        </mxCell>
        <mxCell id="Ak8XbkpvZRS98x_vTFNV-44" value="" style="edgeStyle=orthogonalEdgeStyle;rounded=0;orthogonalLoop=1;jettySize=auto;html=1;entryX=0.413;entryY=1.025;entryDx=0;entryDy=0;entryPerimeter=0;" edge="1" parent="1" source="Ak8XbkpvZRS98x_vTFNV-1" target="Ak8XbkpvZRS98x_vTFNV-40">
          <mxGeometry relative="1" as="geometry">
            <mxPoint x="150" y="620" as="targetPoint" />
            <Array as="points">
              <mxPoint x="761" y="190" />
              <mxPoint x="761" y="640" />
              <mxPoint x="153" y="640" />
            </Array>
          </mxGeometry>
        </mxCell>
        <mxCell id="Ak8XbkpvZRS98x_vTFNV-1" value="clock" style="whiteSpace=wrap;html=1;aspect=fixed;" vertex="1" parent="1">
          <mxGeometry x="600" y="150" width="80" height="80" as="geometry" />
        </mxCell>
        <mxCell id="Ak8XbkpvZRS98x_vTFNV-16" value="" style="edgeStyle=orthogonalEdgeStyle;rounded=0;orthogonalLoop=1;jettySize=auto;html=1;" edge="1" parent="1" source="Ak8XbkpvZRS98x_vTFNV-3" target="Ak8XbkpvZRS98x_vTFNV-15">
          <mxGeometry relative="1" as="geometry" />
        </mxCell>
        <mxCell id="Ak8XbkpvZRS98x_vTFNV-3" value="Input" style="whiteSpace=wrap;html=1;aspect=fixed;" vertex="1" parent="1">
          <mxGeometry x="140" y="60" width="80" height="80" as="geometry" />
        </mxCell>
        <mxCell id="Ak8XbkpvZRS98x_vTFNV-25" value="" style="edgeStyle=orthogonalEdgeStyle;rounded=0;orthogonalLoop=1;jettySize=auto;html=1;entryX=0;entryY=0.5;entryDx=0;entryDy=0;" edge="1" parent="1" source="Ak8XbkpvZRS98x_vTFNV-5" target="Ak8XbkpvZRS98x_vTFNV-9">
          <mxGeometry relative="1" as="geometry">
            <mxPoint x="590" y="540" as="targetPoint" />
            <Array as="points">
              <mxPoint x="480" y="300" />
              <mxPoint x="591" y="300" />
              <mxPoint x="591" y="530" />
            </Array>
          </mxGeometry>
        </mxCell>
        <mxCell id="Ak8XbkpvZRS98x_vTFNV-53" value="" style="edgeStyle=orthogonalEdgeStyle;rounded=0;orthogonalLoop=1;jettySize=auto;html=1;" edge="1" parent="1" source="Ak8XbkpvZRS98x_vTFNV-5">
          <mxGeometry relative="1" as="geometry">
            <mxPoint x="420" y="310" as="targetPoint" />
            <Array as="points">
              <mxPoint x="420" y="250" />
            </Array>
          </mxGeometry>
        </mxCell>
        <mxCell id="Ak8XbkpvZRS98x_vTFNV-54" value="" style="edgeStyle=orthogonalEdgeStyle;rounded=0;orthogonalLoop=1;jettySize=auto;html=1;" edge="1" parent="1" source="Ak8XbkpvZRS98x_vTFNV-5" target="Ak8XbkpvZRS98x_vTFNV-8">
          <mxGeometry relative="1" as="geometry">
            <Array as="points">
              <mxPoint x="440" y="320" />
            </Array>
          </mxGeometry>
        </mxCell>
        <mxCell id="Ak8XbkpvZRS98x_vTFNV-56" value="" style="edgeStyle=orthogonalEdgeStyle;rounded=0;orthogonalLoop=1;jettySize=auto;html=1;exitX=0;exitY=0.25;exitDx=0;exitDy=0;entryX=1;entryY=0.25;entryDx=0;entryDy=0;" edge="1" parent="1" source="Ak8XbkpvZRS98x_vTFNV-5" target="Ak8XbkpvZRS98x_vTFNV-22">
          <mxGeometry relative="1" as="geometry">
            <mxPoint x="280" y="250" as="targetPoint" />
            <Array as="points">
              <mxPoint x="290" y="230" />
              <mxPoint x="290" y="400" />
            </Array>
          </mxGeometry>
        </mxCell>
        <mxCell id="Ak8XbkpvZRS98x_vTFNV-5" value="ball movement&amp;nbsp;" style="whiteSpace=wrap;html=1;aspect=fixed;" vertex="1" parent="1">
          <mxGeometry x="440" y="210" width="80" height="80" as="geometry" />
        </mxCell>
        <mxCell id="Ak8XbkpvZRS98x_vTFNV-20" value="" style="edgeStyle=orthogonalEdgeStyle;rounded=0;orthogonalLoop=1;jettySize=auto;html=1;entryX=1;entryY=0.5;entryDx=0;entryDy=0;" edge="1" parent="1" source="Ak8XbkpvZRS98x_vTFNV-8" target="Ak8XbkpvZRS98x_vTFNV-18">
          <mxGeometry relative="1" as="geometry">
            <mxPoint x="374" y="460" as="targetPoint" />
          </mxGeometry>
        </mxCell>
        <mxCell id="Ak8XbkpvZRS98x_vTFNV-37" value="" style="edgeStyle=orthogonalEdgeStyle;rounded=0;orthogonalLoop=1;jettySize=auto;html=1;entryX=0.5;entryY=1;entryDx=0;entryDy=0;" edge="1" parent="1" source="Ak8XbkpvZRS98x_vTFNV-8" target="Ak8XbkpvZRS98x_vTFNV-9">
          <mxGeometry relative="1" as="geometry">
            <mxPoint x="640" y="580" as="targetPoint" />
            <Array as="points">
              <mxPoint x="451" y="330" />
              <mxPoint x="451" y="590" />
              <mxPoint x="640" y="590" />
            </Array>
          </mxGeometry>
        </mxCell>
        <mxCell id="Ak8XbkpvZRS98x_vTFNV-42" value="" style="edgeStyle=orthogonalEdgeStyle;rounded=0;orthogonalLoop=1;jettySize=auto;html=1;entryX=1;entryY=0.5;entryDx=0;entryDy=0;" edge="1" parent="1" source="Ak8XbkpvZRS98x_vTFNV-8" target="Ak8XbkpvZRS98x_vTFNV-40">
          <mxGeometry relative="1" as="geometry">
            <mxPoint x="370" y="590" as="targetPoint" />
            <Array as="points">
              <mxPoint x="240" y="340" />
              <mxPoint x="240" y="570" />
            </Array>
          </mxGeometry>
        </mxCell>
        <mxCell id="Ak8XbkpvZRS98x_vTFNV-48" value="" style="edgeStyle=orthogonalEdgeStyle;rounded=0;orthogonalLoop=1;jettySize=auto;html=1;entryX=0.75;entryY=1;entryDx=0;entryDy=0;" edge="1" parent="1" source="Ak8XbkpvZRS98x_vTFNV-8" target="Ak8XbkpvZRS98x_vTFNV-45">
          <mxGeometry relative="1" as="geometry">
            <mxPoint x="120" y="390" as="targetPoint" />
            <Array as="points">
              <mxPoint x="217" y="320" />
              <mxPoint x="217" y="350" />
              <mxPoint x="120" y="350" />
              <mxPoint x="120" y="390" />
            </Array>
          </mxGeometry>
        </mxCell>
        <mxCell id="Ak8XbkpvZRS98x_vTFNV-57" value="" style="edgeStyle=orthogonalEdgeStyle;rounded=0;orthogonalLoop=1;jettySize=auto;html=1;" edge="1" parent="1">
          <mxGeometry relative="1" as="geometry">
            <mxPoint x="374" y="290" as="sourcePoint" />
            <mxPoint x="220" y="270" as="targetPoint" />
            <Array as="points">
              <mxPoint x="374" y="260" />
              <mxPoint x="277" y="260" />
              <mxPoint x="277" y="270" />
            </Array>
          </mxGeometry>
        </mxCell>
        <mxCell id="Ak8XbkpvZRS98x_vTFNV-8" value="VGA controller" style="whiteSpace=wrap;html=1;aspect=fixed;" vertex="1" parent="1">
          <mxGeometry x="334" y="280" width="80" height="80" as="geometry" />
        </mxCell>
        <mxCell id="Ak8XbkpvZRS98x_vTFNV-61" value="" style="edgeStyle=orthogonalEdgeStyle;rounded=0;orthogonalLoop=1;jettySize=auto;html=1;entryX=0.863;entryY=1.025;entryDx=0;entryDy=0;entryPerimeter=0;" edge="1" parent="1" source="Ak8XbkpvZRS98x_vTFNV-9" target="Ak8XbkpvZRS98x_vTFNV-22">
          <mxGeometry relative="1" as="geometry">
            <mxPoint x="514.6410161513777" y="550" as="targetPoint" />
            <Array as="points">
              <mxPoint x="209" y="550" />
            </Array>
          </mxGeometry>
        </mxCell>
        <mxCell id="Ak8XbkpvZRS98x_vTFNV-9" value="Score num" style="whiteSpace=wrap;html=1;aspect=fixed;" vertex="1" parent="1">
          <mxGeometry x="600" y="490" width="80" height="80" as="geometry" />
        </mxCell>
        <mxCell id="Ak8XbkpvZRS98x_vTFNV-23" value="" style="edgeStyle=orthogonalEdgeStyle;rounded=0;orthogonalLoop=1;jettySize=auto;html=1;" edge="1" parent="1" source="Ak8XbkpvZRS98x_vTFNV-15" target="Ak8XbkpvZRS98x_vTFNV-22">
          <mxGeometry relative="1" as="geometry" />
        </mxCell>
        <mxCell id="Ak8XbkpvZRS98x_vTFNV-15" value="paddle movement" style="whiteSpace=wrap;html=1;aspect=fixed;" vertex="1" parent="1">
          <mxGeometry x="140" y="220" width="80" height="80" as="geometry" />
        </mxCell>
        <mxCell id="Ak8XbkpvZRS98x_vTFNV-39" value="" style="edgeStyle=orthogonalEdgeStyle;rounded=0;orthogonalLoop=1;jettySize=auto;html=1;" edge="1" parent="1" source="Ak8XbkpvZRS98x_vTFNV-18">
          <mxGeometry relative="1" as="geometry">
            <mxPoint x="468" y="294" as="targetPoint" />
            <Array as="points">
              <mxPoint x="294" y="520" />
              <mxPoint x="468" y="520" />
            </Array>
          </mxGeometry>
        </mxCell>
        <mxCell id="Ak8XbkpvZRS98x_vTFNV-52" value="" style="edgeStyle=orthogonalEdgeStyle;rounded=0;orthogonalLoop=1;jettySize=auto;html=1;" edge="1" parent="1" source="Ak8XbkpvZRS98x_vTFNV-18" target="Ak8XbkpvZRS98x_vTFNV-22">
          <mxGeometry relative="1" as="geometry" />
        </mxCell>
        <mxCell id="Ak8XbkpvZRS98x_vTFNV-18" value="collision sensor&amp;nbsp;" style="whiteSpace=wrap;html=1;aspect=fixed;" vertex="1" parent="1">
          <mxGeometry x="254" y="420" width="80" height="80" as="geometry" />
        </mxCell>
        <mxCell id="Ak8XbkpvZRS98x_vTFNV-46" value="" style="edgeStyle=orthogonalEdgeStyle;rounded=0;orthogonalLoop=1;jettySize=auto;html=1;" edge="1" parent="1" source="Ak8XbkpvZRS98x_vTFNV-22" target="Ak8XbkpvZRS98x_vTFNV-45">
          <mxGeometry relative="1" as="geometry" />
        </mxCell>
        <mxCell id="Ak8XbkpvZRS98x_vTFNV-22" value="Graphics&amp;nbsp;" style="whiteSpace=wrap;html=1;aspect=fixed;" vertex="1" parent="1">
          <mxGeometry x="140" y="380" width="80" height="80" as="geometry" />
        </mxCell>
        <mxCell id="Ak8XbkpvZRS98x_vTFNV-49" value="" style="edgeStyle=orthogonalEdgeStyle;rounded=0;orthogonalLoop=1;jettySize=auto;html=1;entryX=0.25;entryY=1;entryDx=0;entryDy=0;" edge="1" parent="1" source="Ak8XbkpvZRS98x_vTFNV-40" target="Ak8XbkpvZRS98x_vTFNV-45">
          <mxGeometry relative="1" as="geometry">
            <mxPoint x="110" y="450" as="targetPoint" />
          </mxGeometry>
        </mxCell>
        <mxCell id="Ak8XbkpvZRS98x_vTFNV-40" value="Text generator&lt;div&gt;&lt;br&gt;&lt;/div&gt;" style="whiteSpace=wrap;html=1;aspect=fixed;" vertex="1" parent="1">
          <mxGeometry x="120" y="530" width="80" height="80" as="geometry" />
        </mxCell>
        <mxCell id="Ak8XbkpvZRS98x_vTFNV-51" value="" style="edgeStyle=orthogonalEdgeStyle;rounded=0;orthogonalLoop=1;jettySize=auto;html=1;" edge="1" parent="1" source="Ak8XbkpvZRS98x_vTFNV-45" target="Ak8XbkpvZRS98x_vTFNV-50">
          <mxGeometry relative="1" as="geometry" />
        </mxCell>
        <mxCell id="Ak8XbkpvZRS98x_vTFNV-45" value="RGB" style="shape=trapezoid;perimeter=trapezoidPerimeter;whiteSpace=wrap;html=1;fixedSize=1;direction=north;" vertex="1" parent="1">
          <mxGeometry x="40" y="360" width="60" height="120" as="geometry" />
        </mxCell>
        <mxCell id="Ak8XbkpvZRS98x_vTFNV-50" value="Display" style="whiteSpace=wrap;html=1;" vertex="1" parent="1">
          <mxGeometry x="-130" y="390" width="120" height="60" as="geometry" />
        </mxCell>
      </root>
    </mxGraphModel>
  </diagram>
</mxfile>
